<svg version="1.1" id="Layer_1" xmlns="http://www.w3.org/2000/svg" xmlns:xlink="http://www.w3.org/1999/xlink" x="0px" y="0px"
	 width="100%" viewBox="0 0 1200 1268" enable-background="new 0 0 1200 1268" xml:space="preserve">
<path fill="#378D3B" opacity="1.000000" stroke="none" 
	d="
M565.002258,621.119202 
	C567.768677,612.539978 570.521118,603.956116 573.304260,595.382324 
	C581.953918,568.735596 589.997681,541.872131 599.415161,515.499329 
	C613.935486,474.836548 628.829590,434.286377 644.641113,394.111847 
	C657.742310,360.823761 671.718750,327.838165 686.544983,295.282104 
	C703.125610,258.873749 720.826599,222.964615 738.591125,187.111298 
	C746.792603,170.558640 756.300354,154.653015 765.236084,138.465210 
	C765.540771,137.913208 766.064331,137.482056 767.171265,137.263794 
	C764.983459,144.436920 762.893494,151.641632 760.591187,158.777832 
	C749.155212,194.224396 739.263245,230.084427 731.955811,266.619202 
	C726.856812,292.112732 721.729858,317.608246 717.217468,343.208984 
	C714.244934,360.072662 712.336243,377.124023 709.962830,394.093018 
	C707.658386,410.568542 705.174866,427.022186 703.133667,443.530396 
	C701.473389,456.957275 700.402527,470.456116 698.976379,483.913086 
	C697.412354,498.671387 695.653015,513.409302 694.149475,528.173523 
	C693.262024,536.887451 692.736389,545.637695 691.993713,554.367004 
	C690.719849,569.339722 689.379761,584.306763 688.117432,599.280518 
	C687.672668,604.556580 687.325989,609.842224 687.017944,615.128296 
	C685.987427,632.812744 685.006470,650.500122 683.983765,668.185059 
	C682.999451,685.205566 681.947510,702.222168 680.999146,719.244690 
	C680.271240,732.309814 679.624207,745.379883 679.003113,758.450623 
	C678.295166,773.350891 677.618958,788.252930 676.996521,803.156982 
	C676.290710,820.057373 675.712463,836.963196 674.968689,853.861816 
	C674.696838,860.038574 674.109375,866.201477 673.665894,872.370667 
	C674.088928,872.442200 674.511963,872.513733 674.934998,872.585205 
	C677.595276,865.376404 680.149170,858.126221 682.934143,850.965820 
	C695.180420,819.478149 706.968994,787.798157 719.941467,756.611328 
	C731.157654,729.646912 743.375916,703.078796 755.831360,676.656006 
	C768.518860,649.740967 781.106201,622.707458 795.393799,596.633362 
	C821.404114,549.165771 848.003235,501.992523 875.593567,455.429352 
	C893.150757,425.798859 912.445374,397.153687 931.868103,368.685669 
	C949.883423,342.280487 968.615479,316.326508 987.955505,290.875610 
	C1002.128906,272.223755 1017.572327,254.514084 1032.879517,236.754929 
	C1042.562622,225.520889 1053.035889,214.967896 1063.154663,204.109421 
	C1063.621582,204.434067 1064.088623,204.758698 1064.555542,205.083344 
	C1064.555542,205.629791 1064.781372,206.336823 1064.523315,206.699783 
	C1045.662476,233.227966 1028.630249,260.909821 1013.252502,289.567200 
	C1000.817566,312.740295 988.474487,336.004272 977.243713,359.772736 
	C958.569397,399.294678 941.522156,439.545685 926.953125,480.797302 
	C919.761169,501.161133 911.964294,521.345459 905.679443,541.988098 
	C894.314270,579.316895 882.996216,616.702209 873.296631,654.484436 
	C863.234253,693.679382 854.611328,733.267883 846.325317,772.886414 
	C840.970520,798.490112 837.198059,824.432007 833.004883,850.269165 
	C829.470337,872.047729 826.120300,893.862000 823.127441,915.720642 
	C821.024963,931.077148 819.688049,946.537781 817.947205,961.944946 
	C817.411804,966.683533 816.671631,971.398926 816.005981,976.941406 
	C813.616272,985.716431 811.039001,993.620239 808.913025,1001.643616 
	C801.973755,1027.831665 794.605469,1053.926880 788.545959,1080.320435 
	C783.541504,1102.118652 779.516602,1124.194458 776.248840,1146.323120 
	C773.296265,1166.317993 771.514771,1186.518433 770.029663,1206.688232 
	C768.530518,1227.048218 768.030945,1247.481934 767.067505,1268.162231 
	C767.027649,1268.627441 767.013855,1268.813721 767.000000,1269.000000 
	C745.312439,1269.000000 723.624878,1269.000000 701.450012,1268.552734 
	C700.659485,1264.459351 700.358582,1260.813232 700.052795,1257.167480 
	C697.980896,1232.467041 696.461853,1207.704590 693.706360,1183.080566 
	C689.505066,1145.536377 684.997131,1108.008423 679.587585,1070.622925 
	C674.939270,1038.498291 669.239319,1006.509583 663.305054,974.590759 
	C653.007080,919.200989 640.321106,864.340149 625.514832,809.970581 
	C610.225037,753.825562 592.632874,698.423218 572.562256,643.803284 
	C569.814514,636.325623 567.511292,628.684570 565.002258,621.119202 
z"/>
<path fill="#8AC249" opacity="1.000000" stroke="none" 
	d="
M767.093506,1267.883301 
	C768.030945,1247.481934 768.530518,1227.048218 770.029663,1206.688232 
	C771.514771,1186.518433 773.296265,1166.317993 776.248840,1146.323120 
	C779.516602,1124.194458 783.541504,1102.118652 788.545959,1080.320435 
	C794.605469,1053.926880 801.973755,1027.831665 808.913025,1001.643616 
	C811.039001,993.620239 813.616272,985.716431 816.028015,977.366516 
	C820.466370,964.782532 824.591919,952.483398 829.322449,940.421509 
	C837.057434,920.698608 844.572388,900.852600 853.294861,881.562622 
	C866.026672,853.405945 879.180542,825.407166 893.227173,797.888611 
	C903.916931,776.946594 915.820740,756.581116 928.005066,736.456116 
	C943.392700,711.040161 959.030701,685.735779 975.638062,661.109802 
	C992.631042,635.912231 1010.495483,611.268188 1028.791382,586.994568 
	C1042.810913,568.394714 1057.900513,550.584961 1072.878784,532.729553 
	C1084.532959,518.836609 1096.630371,505.308502 1108.753540,491.818298 
	C1117.940186,481.595612 1127.312378,471.527130 1136.900635,461.680847 
	C1149.274902,448.973724 1161.792480,436.396912 1174.552124,424.078522 
	C1181.457886,417.411469 1188.995239,411.398529 1196.247559,405.090546 
	C1196.605835,405.400146 1196.964111,405.709747 1197.322266,406.019348 
	C1196.066040,407.982422 1194.813110,409.947632 1193.552979,411.908203 
	C1182.347656,429.342773 1170.577759,446.445648 1160.086304,464.299713 
	C1148.573486,483.892090 1137.437988,503.791412 1127.590088,524.255798 
	C1114.858398,550.712524 1103.353760,577.770142 1091.703125,604.734253 
	C1075.141968,643.063171 1061.182861,682.390625 1049.058838,722.309021 
	C1038.465576,757.187927 1028.421875,792.267822 1019.431213,827.588806 
	C1011.996765,856.795898 1006.133972,886.420105 1000.192871,915.983704 
	C996.525391,934.233582 993.929688,952.702454 991.012085,971.098267 
	C988.245483,988.541138 985.461853,1005.986694 983.110596,1023.488159 
	C981.383972,1036.339600 980.345398,1049.283569 978.996338,1062.185913 
	C977.339722,1078.030273 975.510559,1093.859009 974.078857,1109.723755 
	C973.100098,1120.569092 972.568970,1131.458740 972.024475,1142.338013 
	C971.255554,1157.704102 970.651245,1173.078491 969.991943,1188.449951 
	C969.644348,1196.552734 969.207153,1204.654175 969.024780,1212.761108 
	C968.610046,1231.193359 968.327637,1249.628662 967.995728,1268.531372 
	C912.645752,1269.000000 857.291565,1269.000000 801.121216,1268.773804 
	C789.234558,1268.326172 778.164062,1268.104736 767.093506,1267.883301 
z"/>
<path fill="#8AC249" opacity="1.000000" stroke="none" 
	d="
M267.468658,1269.000000 
	C266.999939,1252.542358 267.260742,1236.079468 266.925568,1219.628662 
	C266.598572,1203.578247 265.823578,1187.531616 264.945312,1171.499634 
	C264.178894,1157.509399 263.246826,1143.518555 261.933105,1129.570679 
	C260.193329,1111.099854 258.101074,1092.660522 255.991714,1074.226929 
	C254.109665,1057.779907 252.397232,1041.297852 249.888519,1024.941895 
	C246.670197,1003.959595 243.308594,982.967163 238.973312,962.195190 
	C231.416031,925.985535 223.471252,889.844788 214.894791,853.864441 
	C209.952347,833.129578 203.727249,812.683533 197.595917,792.252625 
	C184.990067,750.247131 170.196777,708.981934 153.583939,668.412231 
	C144.491592,646.208069 134.272018,624.455444 124.200912,602.665466 
	C117.127861,587.362122 110.040474,572.012451 101.907913,557.263367 
	C87.631592,531.372070 73.097572,505.588409 57.626015,480.401886 
	C45.842068,461.218506 32.595364,442.920380 19.674606,424.455719 
	C15.032559,417.821930 9.441343,411.852264 4.283295,405.579529 
	C4.556710,405.266022 4.830126,404.952545 5.103541,404.639069 
	C7.518813,406.381714 10.092478,407.943542 12.322874,409.897278 
	C24.112059,420.223877 36.147255,430.301086 47.473625,441.117676 
	C66.964676,459.731476 86.370346,478.464691 105.101471,497.834717 
	C120.246284,513.496155 134.471359,530.057922 148.870300,546.426270 
	C160.938965,560.145630 172.980545,573.910828 184.471680,588.110840 
	C199.210251,606.323853 213.969284,624.571594 227.667862,643.562927 
	C248.498047,672.441406 268.894928,701.659668 288.575592,731.330811 
	C302.470520,752.279236 315.456512,773.888977 327.791626,795.798462 
	C342.234558,821.451660 356.111176,847.463074 369.175232,873.843201 
	C384.967346,905.731934 399.092743,938.406128 411.063812,971.964417 
	C412.704285,976.563049 414.520142,981.099243 416.654877,986.218628 
	C419.806396,995.977539 422.241791,1005.290955 425.365784,1014.367371 
	C436.791809,1047.564209 445.136658,1081.578491 451.967041,1115.944946 
	C455.745483,1134.955811 458.459137,1154.200317 461.027710,1173.422974 
	C463.175262,1189.494873 464.843658,1205.659302 465.925537,1221.836182 
	C466.866821,1235.911255 466.662628,1250.061523 467.047577,1264.176392 
	C467.091614,1265.791748 467.669586,1267.392456 468.000000,1269.000000 
	C401.312439,1269.000000 334.624878,1269.000000 267.468658,1269.000000 
z"/>
<path fill="#378D3B" opacity="1.000000" stroke="none" 
	d="
M468.468658,1269.000000 
	C467.669586,1267.392456 467.091614,1265.791748 467.047577,1264.176392 
	C466.662628,1250.061523 466.866821,1235.911255 465.925537,1221.836182 
	C464.843658,1205.659302 463.175262,1189.494873 461.027710,1173.422974 
	C458.459137,1154.200317 455.745483,1134.955811 451.967041,1115.944946 
	C445.136658,1081.578491 436.791809,1047.564209 425.365784,1014.367371 
	C422.241791,1005.290955 419.806396,995.977539 416.976746,986.389282 
	C415.836456,976.171814 414.991211,966.308472 413.657318,956.511658 
	C411.991791,944.279480 409.918793,932.102844 408.031250,919.900757 
	C405.966431,906.552612 404.242889,893.141418 401.778412,879.867615 
	C397.813873,858.514343 393.702606,837.176697 389.034058,815.968750 
	C382.876740,787.997986 377.111237,759.881531 369.389618,732.328674 
	C357.879639,691.257690 345.792480,650.290466 332.096588,609.908081 
	C320.673340,576.226440 307.269043,543.160767 293.462219,510.361023 
	C282.317749,483.885986 270.240997,457.697357 256.804108,432.320862 
	C240.832260,402.156921 222.961182,372.998749 205.924652,343.398102 
	C205.222733,342.178497 204.638977,340.890930 204.879944,338.998962 
	C209.650040,344.244659 214.607620,349.333679 219.150238,354.769470 
	C227.931732,365.277557 236.662186,375.838501 245.082779,386.635681 
	C259.277130,404.836121 273.807251,422.817230 287.136688,441.640839 
	C316.389771,482.951569 345.575378,524.334961 373.636719,566.456055 
	C393.098785,595.669373 410.988586,625.955200 428.928192,656.149658 
	C443.089874,679.985413 456.273834,704.402527 469.851349,728.584290 
	C472.437927,733.190979 474.834686,737.904175 477.717346,743.079956 
	C479.285950,746.167786 480.387360,748.777832 481.637299,751.314636 
	C492.536957,773.436218 503.588898,795.483643 514.354797,817.669922 
	C535.320618,860.875916 553.819153,905.127502 570.317505,950.229309 
	C595.742249,1019.733459 615.694458,1090.657593 626.321472,1164.032104 
	C631.362793,1198.840454 634.656006,1233.775513 634.000000,1269.000000 
	C606.979126,1269.000000 579.958191,1269.000000 552.102234,1268.810547 
	C550.136963,1268.422485 549.007324,1268.055176 547.876465,1268.051270 
	C533.676208,1268.002441 519.475586,1267.977417 505.275513,1268.040039 
	C503.848969,1268.046387 502.425110,1268.665405 501.000000,1269.000000 
	C490.312439,1269.000000 479.624878,1269.000000 468.468658,1269.000000 
z"/>
<path fill="#4BAE4F" opacity="1.000000" stroke="none" 
	d="
M634.468628,1269.000000 
	C634.656006,1233.775513 631.362793,1198.840454 626.321472,1164.032104 
	C615.694458,1090.657593 595.742249,1019.733459 570.317505,950.229309 
	C553.819153,905.127502 535.320618,860.875916 514.354797,817.669922 
	C503.588898,795.483643 492.536957,773.436218 481.637299,751.314636 
	C480.387360,748.777832 479.285950,746.167786 478.020111,743.234985 
	C475.790344,730.638733 473.867340,718.357666 471.474548,706.168884 
	C467.469940,685.769348 463.446350,665.365906 458.904541,645.081848 
	C454.758148,626.563721 450.267334,608.105896 445.290985,589.794617 
	C438.471924,564.702881 431.531952,539.623779 423.746429,514.820923 
	C416.585297,492.007233 408.381744,469.514648 400.361267,446.978882 
	C394.816040,431.397919 389.055389,415.882599 382.925751,400.523621 
	C376.610535,384.699646 370.098724,368.932800 363.015228,353.441650 
	C351.682709,328.658112 340.716583,303.639587 327.941040,279.599640 
	C310.237274,246.286133 291.380341,213.564301 272.273926,181.025528 
	C261.338776,162.402649 249.424103,144.299942 237.050644,126.591751 
	C223.991074,107.901657 210.233826,89.664558 196.082092,71.782982 
	C184.646744,57.333729 172.227997,43.658478 160.136032,29.734951 
	C153.971405,22.636600 147.565964,15.747406 141.269394,8.763670 
	C141.584000,8.370317 141.898605,7.976963 142.213226,7.583610 
	C146.110153,10.524622 150.202133,13.242120 153.871445,16.443998 
	C173.373108,33.461349 192.941254,50.409431 212.136078,67.768845 
	C223.546356,78.088066 234.658005,88.789917 245.279129,99.916168 
	C258.739410,114.016647 272.106537,128.273956 284.541443,143.269958 
	C304.574036,167.428391 324.347809,191.841919 343.233398,216.899506 
	C362.044098,241.857727 380.270660,267.313751 397.562164,293.342834 
	C414.162109,318.330841 429.543579,344.150024 444.872986,369.953003 
	C455.596649,388.003479 465.618469,406.489716 475.432312,425.056946 
	C486.494080,445.985138 497.512024,466.968628 507.561371,488.391388 
	C519.326233,513.471130 530.192871,538.978760 541.132080,564.437073 
	C549.145752,583.086731 556.647949,601.956238 564.690186,620.923462 
	C567.511292,628.684570 569.814514,636.325623 572.562256,643.803284 
	C592.632874,698.423218 610.225037,753.825562 625.514832,809.970581 
	C640.321106,864.340149 653.007080,919.200989 663.305054,974.590759 
	C669.239319,1006.509583 674.939270,1038.498291 679.587585,1070.622925 
	C684.997131,1108.008423 689.505066,1145.536377 693.706360,1183.080566 
	C696.461853,1207.704590 697.980896,1232.467041 700.052795,1257.167480 
	C700.358582,1260.813232 700.659485,1264.459351 700.981323,1268.552734 
	C678.979126,1269.000000 656.958191,1269.000000 634.468628,1269.000000 
z"/>
<path fill="#44A349" opacity="1.000000" stroke="none" 
	d="
M501.468658,1269.000000 
	C502.425110,1268.665405 503.848969,1268.046387 505.275513,1268.040039 
	C519.475586,1267.977417 533.676208,1268.002441 547.876465,1268.051270 
	C549.007324,1268.055176 550.136963,1268.422485 551.633545,1268.810547 
	C535.312439,1269.000000 518.624878,1269.000000 501.468658,1269.000000 
z"/>
<path fill="#54A040" opacity="1.000000" stroke="none" 
	d="
M767.067505,1268.162109 
	C778.164062,1268.104736 789.234558,1268.326172 800.652588,1268.773804 
	C789.979126,1269.000000 778.958191,1269.000000 767.468628,1269.000000 
	C767.013855,1268.813721 767.027649,1268.627441 767.067505,1268.162109 
z"/>
<path fill="#8AC249" opacity="1.000000" stroke="none" 
	d="
M1.000001,402.333313 
	C1.453077,402.193268 1.916287,402.366150 2.356620,402.585052 
	C2.884413,402.847412 3.392675,403.149078 3.631799,404.084503 
	C2.940867,403.824005 2.249935,403.563477 1.279501,403.651489 
	C1.000000,403.555542 1.000000,403.111115 1.000001,402.333313 
z"/>
<path fill="#4BAE4F" opacity="1.000000" stroke="none" 
	d="
M139.261047,5.261969 
	C139.559998,5.674921 139.538940,6.052893 139.517883,6.430865 
	C139.373962,6.374550 139.129364,6.346580 139.104111,6.256858 
	C139.010559,5.924598 138.989395,5.571965 139.261047,5.261969 
z"/>
<path fill="#378D3B" opacity="1.000000" stroke="none" 
	d="
M1066.162476,202.735413 
	C1066.394287,202.896210 1066.433228,203.223022 1066.472290,203.549805 
	C1066.304810,203.333664 1066.137329,203.117538 1066.162476,202.735413 
z"/>
<path fill="#378D3B" opacity="1.000000" stroke="none" 
	d="
M202.969772,337.578827 
	C202.651001,337.385559 202.566238,337.073578 202.481476,336.761627 
	C202.722244,336.994476 202.963013,337.227295 202.969772,337.578827 
z"/>
<path fill="#8AC249" opacity="1.000000" stroke="none" 
	d="
M1199.213867,404.068787 
	C1198.722046,404.050781 1198.479370,403.781128 1198.236572,403.511475 
	C1198.645386,403.613373 1199.054199,403.715271 1199.213867,404.068787 
z"/>
</svg>